<?xml version="1.0" encoding="UTF-8" standalone="no"?>
<!DOCTYPE svg PUBLIC "-//W3C//DTD SVG 1.1//EN"
 "http://www.w3.org/Graphics/SVG/1.1/DTD/svg11.dtd">
<!-- Generated by graphviz version 2.44.1 (0)
 -->
<!-- Title: structs Pages: 1 -->
<svg width="307pt" height="1515pt"
 viewBox="0.00 0.00 306.50 1515.00" xmlns="http://www.w3.org/2000/svg" xmlns:xlink="http://www.w3.org/1999/xlink">
<g id="graph0" class="graph" transform="scale(1 1) rotate(0) translate(4 1511)">
<title>structs</title>
<polygon fill="white" stroke="transparent" points="-4,4 -4,-1511 302.5,-1511 302.5,4 -4,4"/>
<!-- HEAD -->
<g id="node1" class="node">
<title>HEAD</title>
<polygon fill="#7b68ee" stroke="#000000" points="67.5,-1470.5 67.5,-1506.5 128.5,-1506.5 128.5,-1470.5 67.5,-1470.5"/>
<text text-anchor="middle" x="98" y="-1484.7" font-family="Times,serif" font-size="16.00" fill="#f0ffff">Head</text>
</g>
<!-- NODE1 -->
<g id="node4" class="node">
<title>NODE1</title>
<polygon fill="#90ee90" stroke="#000000" points="28,-1372.5 28,-1433.5 168,-1433.5 168,-1372.5 28,-1372.5"/>
<text text-anchor="middle" x="98" y="-1418.3" font-family="Times,serif" font-size="14.00">[1] 0</text>
<polyline fill="none" stroke="#000000" points="28,-1410.5 168,-1410.5 "/>
<text text-anchor="middle" x="48.5" y="-1395.3" font-family="Times,serif" font-size="14.00">pos</text>
<text text-anchor="middle" x="48.5" y="-1380.3" font-family="Times,serif" font-size="14.00">1</text>
<polyline fill="none" stroke="#000000" points="69,-1372.5 69,-1410.5 "/>
<text text-anchor="middle" x="89" y="-1395.3" font-family="Times,serif" font-size="14.00">nxt</text>
<text text-anchor="middle" x="89" y="-1380.3" font-family="Times,serif" font-size="14.00">2</text>
<polyline fill="none" stroke="#000000" points="109,-1372.5 109,-1410.5 "/>
<text text-anchor="middle" x="138.5" y="-1395.3" font-family="Times,serif" font-size="14.00">prv</text>
<text text-anchor="middle" x="138.5" y="-1380.3" font-family="Times,serif" font-size="14.00">NULL</text>
</g>
<!-- HEAD&#45;&gt;NODE1 -->
<!-- HEAD&#45;&gt;NODE1 -->
<g id="edge33" class="edge">
<title>HEAD&#45;&gt;NODE1</title>
<path fill="none" stroke="#7b68ee" d="M103.59,-1470.2C104.42,-1462.56 104.8,-1453.24 104.74,-1444.03"/>
<polygon fill="#7b68ee" stroke="#7b68ee" points="108.24,-1443.69 104.5,-1433.78 101.24,-1443.86 108.24,-1443.69"/>
</g>
<!-- NULL -->
<g id="node2" class="node">
<title>NULL</title>
<polygon fill="#dc143c" stroke="#000000" points="233.5,-1470.5 233.5,-1506.5 298.5,-1506.5 298.5,-1470.5 233.5,-1470.5"/>
<text text-anchor="middle" x="266" y="-1484.7" font-family="Times,serif" font-size="16.00" fill="#f0ffff">NULL</text>
</g>
<!-- TAIL -->
<g id="node3" class="node">
<title>TAIL</title>
<polygon fill="#7b68ee" stroke="#000000" points="161,-1470.5 161,-1506.5 215,-1506.5 215,-1470.5 161,-1470.5"/>
<text text-anchor="middle" x="188" y="-1484.7" font-family="Times,serif" font-size="16.00" fill="#f0ffff">Tail</text>
</g>
<!-- TAIL&#45;&gt;NODE1 -->
<!-- NODE8 -->
<g id="node11" class="node">
<title>NODE8</title>
<polygon fill="#90ee90" stroke="#000000" points="58.5,-686.5 58.5,-747.5 199.5,-747.5 199.5,-686.5 58.5,-686.5"/>
<text text-anchor="middle" x="129" y="-732.3" font-family="Times,serif" font-size="14.00">[8] 10.5</text>
<polyline fill="none" stroke="#000000" points="58.5,-724.5 199.5,-724.5 "/>
<text text-anchor="middle" x="79" y="-709.3" font-family="Times,serif" font-size="14.00">pos</text>
<text text-anchor="middle" x="79" y="-694.3" font-family="Times,serif" font-size="14.00">9</text>
<polyline fill="none" stroke="#000000" points="99.5,-686.5 99.5,-724.5 "/>
<text text-anchor="middle" x="129" y="-709.3" font-family="Times,serif" font-size="14.00">nxt</text>
<text text-anchor="middle" x="129" y="-694.3" font-family="Times,serif" font-size="14.00">NULL</text>
<polyline fill="none" stroke="#000000" points="158.5,-686.5 158.5,-724.5 "/>
<text text-anchor="middle" x="179" y="-709.3" font-family="Times,serif" font-size="14.00">prv</text>
<text text-anchor="middle" x="179" y="-694.3" font-family="Times,serif" font-size="14.00">9</text>
</g>
<!-- TAIL&#45;&gt;NODE8 -->
<g id="edge34" class="edge">
<title>TAIL&#45;&gt;NODE8</title>
<path fill="none" stroke="#7b68ee" d="M190.22,-1470.27C194.17,-1438.06 202,-1366.52 202,-1306 202,-1306 202,-1306 202,-912 202,-855.03 174.08,-794.33 152.78,-756.3"/>
<polygon fill="#7b68ee" stroke="#7b68ee" points="155.81,-754.55 147.8,-747.61 149.73,-758.02 155.81,-754.55"/>
</g>
<!-- NODE2 -->
<g id="node5" class="node">
<title>NODE2</title>
<polygon fill="#90ee90" stroke="#000000" points="34,-1274.5 34,-1335.5 156,-1335.5 156,-1274.5 34,-1274.5"/>
<text text-anchor="middle" x="95" y="-1320.3" font-family="Times,serif" font-size="14.00">[2] 1.5</text>
<polyline fill="none" stroke="#000000" points="34,-1312.5 156,-1312.5 "/>
<text text-anchor="middle" x="54.5" y="-1297.3" font-family="Times,serif" font-size="14.00">pos</text>
<text text-anchor="middle" x="54.5" y="-1282.3" font-family="Times,serif" font-size="14.00">2</text>
<polyline fill="none" stroke="#000000" points="75,-1274.5 75,-1312.5 "/>
<text text-anchor="middle" x="95" y="-1297.3" font-family="Times,serif" font-size="14.00">nxt</text>
<text text-anchor="middle" x="95" y="-1282.3" font-family="Times,serif" font-size="14.00">3</text>
<polyline fill="none" stroke="#000000" points="115,-1274.5 115,-1312.5 "/>
<text text-anchor="middle" x="135.5" y="-1297.3" font-family="Times,serif" font-size="14.00">prv</text>
<text text-anchor="middle" x="135.5" y="-1282.3" font-family="Times,serif" font-size="14.00">1</text>
</g>
<!-- NODE1&#45;&gt;NODE2 -->
<!-- NODE1&#45;&gt;NODE2 -->
<g id="edge17" class="edge">
<title>NODE1:nxt&#45;&gt;NODE2</title>
<path fill="none" stroke="black" d="M89,-1372C89,-1363.49 89.5,-1354.39 90.21,-1345.76"/>
<polygon fill="black" stroke="black" points="93.72,-1345.8 91.17,-1335.52 86.75,-1345.15 93.72,-1345.8"/>
</g>
<!-- NODE2&#45;&gt;NODE1 -->
<g id="edge19" class="edge">
<title>NODE2:prv&#45;&gt;NODE1</title>
<path fill="none" stroke="#a9a9a9" stroke-dasharray="5,2" d="M157,-1293C190.33,-1293 161.73,-1332.89 133.95,-1364.41"/>
<polygon fill="#a9a9a9" stroke="#a9a9a9" points="131.02,-1362.44 126.94,-1372.22 136.22,-1367.11 131.02,-1362.44"/>
</g>
<!-- NODE3 -->
<g id="node6" class="node">
<title>NODE3</title>
<polygon fill="#90ee90" stroke="#000000" points="34,-1176.5 34,-1237.5 156,-1237.5 156,-1176.5 34,-1176.5"/>
<text text-anchor="middle" x="95" y="-1222.3" font-family="Times,serif" font-size="14.00">[3] 3</text>
<polyline fill="none" stroke="#000000" points="34,-1214.5 156,-1214.5 "/>
<text text-anchor="middle" x="54.5" y="-1199.3" font-family="Times,serif" font-size="14.00">pos</text>
<text text-anchor="middle" x="54.5" y="-1184.3" font-family="Times,serif" font-size="14.00">3</text>
<polyline fill="none" stroke="#000000" points="75,-1176.5 75,-1214.5 "/>
<text text-anchor="middle" x="95" y="-1199.3" font-family="Times,serif" font-size="14.00">nxt</text>
<text text-anchor="middle" x="95" y="-1184.3" font-family="Times,serif" font-size="14.00">4</text>
<polyline fill="none" stroke="#000000" points="115,-1176.5 115,-1214.5 "/>
<text text-anchor="middle" x="135.5" y="-1199.3" font-family="Times,serif" font-size="14.00">prv</text>
<text text-anchor="middle" x="135.5" y="-1184.3" font-family="Times,serif" font-size="14.00">2</text>
</g>
<!-- NODE2&#45;&gt;NODE3 -->
<!-- NODE2&#45;&gt;NODE3 -->
<g id="edge18" class="edge">
<title>NODE2:nxt&#45;&gt;NODE3</title>
<path fill="none" stroke="black" d="M95,-1274C95,-1265.53 95,-1256.44 95,-1247.81"/>
<polygon fill="black" stroke="black" points="98.5,-1247.57 95,-1237.57 91.5,-1247.57 98.5,-1247.57"/>
</g>
<!-- NODE3&#45;&gt;NODE2 -->
<g id="edge21" class="edge">
<title>NODE3:prv&#45;&gt;NODE2</title>
<path fill="none" stroke="#a9a9a9" stroke-dasharray="5,2" d="M157,-1195C176.12,-1195 163.17,-1220.28 156,-1238 151.79,-1248.41 145.12,-1258.18 137.72,-1266.85"/>
<polygon fill="#a9a9a9" stroke="#a9a9a9" points="134.9,-1264.74 130.75,-1274.49 140.08,-1269.46 134.9,-1264.74"/>
</g>
<!-- NODE4 -->
<g id="node7" class="node">
<title>NODE4</title>
<polygon fill="#90ee90" stroke="#000000" points="34,-1078.5 34,-1139.5 156,-1139.5 156,-1078.5 34,-1078.5"/>
<text text-anchor="middle" x="95" y="-1124.3" font-family="Times,serif" font-size="14.00">[4] 4.5</text>
<polyline fill="none" stroke="#000000" points="34,-1116.5 156,-1116.5 "/>
<text text-anchor="middle" x="54.5" y="-1101.3" font-family="Times,serif" font-size="14.00">pos</text>
<text text-anchor="middle" x="54.5" y="-1086.3" font-family="Times,serif" font-size="14.00">4</text>
<polyline fill="none" stroke="#000000" points="75,-1078.5 75,-1116.5 "/>
<text text-anchor="middle" x="95" y="-1101.3" font-family="Times,serif" font-size="14.00">nxt</text>
<text text-anchor="middle" x="95" y="-1086.3" font-family="Times,serif" font-size="14.00">5</text>
<polyline fill="none" stroke="#000000" points="115,-1078.5 115,-1116.5 "/>
<text text-anchor="middle" x="135.5" y="-1101.3" font-family="Times,serif" font-size="14.00">prv</text>
<text text-anchor="middle" x="135.5" y="-1086.3" font-family="Times,serif" font-size="14.00">3</text>
</g>
<!-- NODE3&#45;&gt;NODE4 -->
<!-- NODE3&#45;&gt;NODE4 -->
<g id="edge20" class="edge">
<title>NODE3:nxt&#45;&gt;NODE4</title>
<path fill="none" stroke="black" d="M95,-1176C95,-1167.53 95,-1158.44 95,-1149.81"/>
<polygon fill="black" stroke="black" points="98.5,-1149.57 95,-1139.57 91.5,-1149.57 98.5,-1149.57"/>
</g>
<!-- NODE4&#45;&gt;NODE3 -->
<g id="edge23" class="edge">
<title>NODE4:prv&#45;&gt;NODE3</title>
<path fill="none" stroke="#a9a9a9" stroke-dasharray="5,2" d="M157,-1097C176.12,-1097 163.17,-1122.28 156,-1140 151.79,-1150.41 145.12,-1160.18 137.72,-1168.85"/>
<polygon fill="#a9a9a9" stroke="#a9a9a9" points="134.9,-1166.74 130.75,-1176.49 140.08,-1171.46 134.9,-1166.74"/>
</g>
<!-- NODE5 -->
<g id="node8" class="node">
<title>NODE5</title>
<polygon fill="#90ee90" stroke="#000000" points="34,-980.5 34,-1041.5 156,-1041.5 156,-980.5 34,-980.5"/>
<text text-anchor="middle" x="95" y="-1026.3" font-family="Times,serif" font-size="14.00">[5] 6</text>
<polyline fill="none" stroke="#000000" points="34,-1018.5 156,-1018.5 "/>
<text text-anchor="middle" x="54.5" y="-1003.3" font-family="Times,serif" font-size="14.00">pos</text>
<text text-anchor="middle" x="54.5" y="-988.3" font-family="Times,serif" font-size="14.00">5</text>
<polyline fill="none" stroke="#000000" points="75,-980.5 75,-1018.5 "/>
<text text-anchor="middle" x="95" y="-1003.3" font-family="Times,serif" font-size="14.00">nxt</text>
<text text-anchor="middle" x="95" y="-988.3" font-family="Times,serif" font-size="14.00">6</text>
<polyline fill="none" stroke="#000000" points="115,-980.5 115,-1018.5 "/>
<text text-anchor="middle" x="135.5" y="-1003.3" font-family="Times,serif" font-size="14.00">prv</text>
<text text-anchor="middle" x="135.5" y="-988.3" font-family="Times,serif" font-size="14.00">4</text>
</g>
<!-- NODE4&#45;&gt;NODE5 -->
<!-- NODE4&#45;&gt;NODE5 -->
<g id="edge22" class="edge">
<title>NODE4:nxt&#45;&gt;NODE5</title>
<path fill="none" stroke="black" d="M95,-1078C95,-1069.53 95,-1060.44 95,-1051.81"/>
<polygon fill="black" stroke="black" points="98.5,-1051.57 95,-1041.57 91.5,-1051.57 98.5,-1051.57"/>
</g>
<!-- NODE5&#45;&gt;NODE4 -->
<g id="edge25" class="edge">
<title>NODE5:prv&#45;&gt;NODE4</title>
<path fill="none" stroke="#a9a9a9" stroke-dasharray="5,2" d="M157,-999C176.12,-999 163.17,-1024.28 156,-1042 151.79,-1052.41 145.12,-1062.18 137.72,-1070.85"/>
<polygon fill="#a9a9a9" stroke="#a9a9a9" points="134.9,-1068.74 130.75,-1078.49 140.08,-1073.46 134.9,-1068.74"/>
</g>
<!-- NODE6 -->
<g id="node9" class="node">
<title>NODE6</title>
<polygon fill="#90ee90" stroke="#000000" points="0,-882.5 0,-943.5 122,-943.5 122,-882.5 0,-882.5"/>
<text text-anchor="middle" x="61" y="-928.3" font-family="Times,serif" font-size="14.00">[6] 7.5</text>
<polyline fill="none" stroke="#000000" points="0,-920.5 122,-920.5 "/>
<text text-anchor="middle" x="20.5" y="-905.3" font-family="Times,serif" font-size="14.00">pos</text>
<text text-anchor="middle" x="20.5" y="-890.3" font-family="Times,serif" font-size="14.00">6</text>
<polyline fill="none" stroke="#000000" points="41,-882.5 41,-920.5 "/>
<text text-anchor="middle" x="61" y="-905.3" font-family="Times,serif" font-size="14.00">nxt</text>
<text text-anchor="middle" x="61" y="-890.3" font-family="Times,serif" font-size="14.00">10</text>
<polyline fill="none" stroke="#000000" points="81,-882.5 81,-920.5 "/>
<text text-anchor="middle" x="101.5" y="-905.3" font-family="Times,serif" font-size="14.00">prv</text>
<text text-anchor="middle" x="101.5" y="-890.3" font-family="Times,serif" font-size="14.00">5</text>
</g>
<!-- NODE5&#45;&gt;NODE6 -->
<!-- NODE5&#45;&gt;NODE6 -->
<g id="edge24" class="edge">
<title>NODE5:nxt&#45;&gt;NODE6</title>
<path fill="none" stroke="black" d="M95,-980C95,-970.63 92.26,-961.26 88.33,-952.64"/>
<polygon fill="black" stroke="black" points="91.37,-950.91 83.68,-943.62 85.15,-954.12 91.37,-950.91"/>
</g>
<!-- NODE6&#45;&gt;NODE5 -->
<g id="edge27" class="edge">
<title>NODE6:prv&#45;&gt;NODE5</title>
<path fill="none" stroke="#a9a9a9" stroke-dasharray="5,2" d="M123,-901C152.87,-901 137.07,-939.89 119.5,-971.21"/>
<polygon fill="#a9a9a9" stroke="#a9a9a9" points="116.27,-969.81 114.29,-980.22 122.32,-973.31 116.27,-969.81"/>
</g>
<!-- NODE7 -->
<g id="node10" class="node">
<title>NODE7</title>
<polygon fill="#ffa07a" stroke="#000000" points="16,-784.5 16,-845.5 98,-845.5 98,-784.5 16,-784.5"/>
<text text-anchor="middle" x="57" y="-830.3" font-family="Times,serif" font-size="14.00">[7] FREE</text>
<polyline fill="none" stroke="#000000" points="16,-822.5 98,-822.5 "/>
<text text-anchor="middle" x="36" y="-807.3" font-family="Times,serif" font-size="14.00">nxt</text>
<text text-anchor="middle" x="36" y="-792.3" font-family="Times,serif" font-size="14.00">11</text>
<polyline fill="none" stroke="#000000" points="56,-784.5 56,-822.5 "/>
<text text-anchor="middle" x="77" y="-807.3" font-family="Times,serif" font-size="14.00">prv</text>
<text text-anchor="middle" x="77" y="-792.3" font-family="Times,serif" font-size="14.00">&#45;1</text>
</g>
<!-- NODE6&#45;&gt;NODE7 -->
<!-- NODE10 -->
<g id="node13" class="node">
<title>NODE10</title>
<polygon fill="#90ee90" stroke="#000000" points="68,-490.5 68,-551.5 190,-551.5 190,-490.5 68,-490.5"/>
<text text-anchor="middle" x="129" y="-536.3" font-family="Times,serif" font-size="14.00">[10] 2021</text>
<polyline fill="none" stroke="#000000" points="68,-528.5 190,-528.5 "/>
<text text-anchor="middle" x="88.5" y="-513.3" font-family="Times,serif" font-size="14.00">pos</text>
<text text-anchor="middle" x="88.5" y="-498.3" font-family="Times,serif" font-size="14.00">7</text>
<polyline fill="none" stroke="#000000" points="109,-490.5 109,-528.5 "/>
<text text-anchor="middle" x="129" y="-513.3" font-family="Times,serif" font-size="14.00">nxt</text>
<text text-anchor="middle" x="129" y="-498.3" font-family="Times,serif" font-size="14.00">9</text>
<polyline fill="none" stroke="#000000" points="149,-490.5 149,-528.5 "/>
<text text-anchor="middle" x="169.5" y="-513.3" font-family="Times,serif" font-size="14.00">prv</text>
<text text-anchor="middle" x="169.5" y="-498.3" font-family="Times,serif" font-size="14.00">6</text>
</g>
<!-- NODE6&#45;&gt;NODE10 -->
<g id="edge26" class="edge">
<title>NODE6:nxt&#45;&gt;NODE10</title>
<path fill="none" stroke="black" d="M61,-882C61,-856.04 89.18,-864.88 107,-846 130.02,-821.61 125.6,-807.01 150,-784 172.35,-762.92 193.96,-774.79 209,-748 221.48,-725.76 202.7,-595.5 199,-588 193.69,-577.23 185.84,-567.31 177.3,-558.6"/>
<polygon fill="black" stroke="black" points="179.64,-556 170.01,-551.59 174.79,-561.04 179.64,-556"/>
</g>
<!-- NODE7&#45;&gt;NODE8 -->
<!-- NODE9 -->
<g id="node12" class="node">
<title>NODE9</title>
<polygon fill="#90ee90" stroke="#000000" points="68,-588.5 68,-649.5 190,-649.5 190,-588.5 68,-588.5"/>
<text text-anchor="middle" x="129" y="-634.3" font-family="Times,serif" font-size="14.00">[9] 2020</text>
<polyline fill="none" stroke="#000000" points="68,-626.5 190,-626.5 "/>
<text text-anchor="middle" x="88.5" y="-611.3" font-family="Times,serif" font-size="14.00">pos</text>
<text text-anchor="middle" x="88.5" y="-596.3" font-family="Times,serif" font-size="14.00">8</text>
<polyline fill="none" stroke="#000000" points="109,-588.5 109,-626.5 "/>
<text text-anchor="middle" x="129" y="-611.3" font-family="Times,serif" font-size="14.00">nxt</text>
<text text-anchor="middle" x="129" y="-596.3" font-family="Times,serif" font-size="14.00">8</text>
<polyline fill="none" stroke="#000000" points="149,-588.5 149,-626.5 "/>
<text text-anchor="middle" x="169.5" y="-611.3" font-family="Times,serif" font-size="14.00">prv</text>
<text text-anchor="middle" x="169.5" y="-596.3" font-family="Times,serif" font-size="14.00">10</text>
</g>
<!-- NODE8&#45;&gt;NODE9 -->
<!-- NODE8&#45;&gt;NODE9 -->
<g id="edge28" class="edge">
<title>NODE8:prv&#45;&gt;NODE9</title>
<path fill="none" stroke="#a9a9a9" stroke-dasharray="5,2" d="M179,-686C179,-675.87 175.21,-666.31 169.71,-657.78"/>
<polygon fill="#a9a9a9" stroke="#a9a9a9" points="172.46,-655.6 163.73,-649.61 166.81,-659.74 172.46,-655.6"/>
</g>
<!-- NODE9&#45;&gt;NODE8 -->
<g id="edge29" class="edge">
<title>NODE9:nxt&#45;&gt;NODE8</title>
<path fill="none" stroke="black" d="M129,-587C129,-573.44 180.49,-578.34 190,-588 209.32,-607.64 200.04,-624.34 190,-650 185.95,-660.35 179.44,-670.04 172.14,-678.65"/>
<polygon fill="black" stroke="black" points="169.39,-676.48 165.27,-686.24 174.57,-681.18 169.39,-676.48"/>
</g>
<!-- NODE9&#45;&gt;NODE10 -->
<!-- NODE9&#45;&gt;NODE10 -->
<g id="edge30" class="edge">
<title>NODE9:prv&#45;&gt;NODE10</title>
<path fill="none" stroke="#a9a9a9" stroke-dasharray="5,2" d="M170,-588C170,-578.29 166.76,-568.82 162.1,-560.23"/>
<polygon fill="#a9a9a9" stroke="#a9a9a9" points="165.02,-558.3 156.8,-551.61 159.06,-561.96 165.02,-558.3"/>
</g>
<!-- NODE10&#45;&gt;NODE6 -->
<g id="edge32" class="edge">
<title>NODE10:prv&#45;&gt;NODE6</title>
<path fill="none" stroke="#a9a9a9" stroke-dasharray="5,2" d="M191,-509C298.29,-509 261.93,-647.26 225,-748 205.08,-802.35 155.8,-847.38 116.43,-876.42"/>
<polygon fill="#a9a9a9" stroke="#a9a9a9" points="114.25,-873.68 108.2,-882.37 118.35,-879.35 114.25,-873.68"/>
</g>
<!-- NODE10&#45;&gt;NODE9 -->
<g id="edge31" class="edge">
<title>NODE10:nxt&#45;&gt;NODE9</title>
<path fill="none" stroke="black" d="M129,-489C129,-475.44 180.49,-480.34 190,-490 209.32,-509.64 200.04,-526.34 190,-552 185.95,-562.35 179.44,-572.04 172.14,-580.65"/>
<polygon fill="black" stroke="black" points="169.39,-578.48 165.27,-588.24 174.57,-583.18 169.39,-578.48"/>
</g>
<!-- NODE11 -->
<g id="node14" class="node">
<title>NODE11</title>
<polygon fill="#ffa07a" stroke="#000000" points="83.5,-392.5 83.5,-453.5 174.5,-453.5 174.5,-392.5 83.5,-392.5"/>
<text text-anchor="middle" x="129" y="-438.3" font-family="Times,serif" font-size="14.00">[11] FREE</text>
<polyline fill="none" stroke="#000000" points="83.5,-430.5 174.5,-430.5 "/>
<text text-anchor="middle" x="106" y="-415.3" font-family="Times,serif" font-size="14.00">nxt</text>
<text text-anchor="middle" x="106" y="-400.3" font-family="Times,serif" font-size="14.00">12</text>
<polyline fill="none" stroke="#000000" points="128.5,-392.5 128.5,-430.5 "/>
<text text-anchor="middle" x="151.5" y="-415.3" font-family="Times,serif" font-size="14.00">prv</text>
<text text-anchor="middle" x="151.5" y="-400.3" font-family="Times,serif" font-size="14.00">&#45;1</text>
</g>
<!-- NODE10&#45;&gt;NODE11 -->
<!-- NODE12 -->
<g id="node15" class="node">
<title>NODE12</title>
<polygon fill="#ffa07a" stroke="#000000" points="83.5,-294.5 83.5,-355.5 174.5,-355.5 174.5,-294.5 83.5,-294.5"/>
<text text-anchor="middle" x="129" y="-340.3" font-family="Times,serif" font-size="14.00">[12] FREE</text>
<polyline fill="none" stroke="#000000" points="83.5,-332.5 174.5,-332.5 "/>
<text text-anchor="middle" x="106" y="-317.3" font-family="Times,serif" font-size="14.00">nxt</text>
<text text-anchor="middle" x="106" y="-302.3" font-family="Times,serif" font-size="14.00">13</text>
<polyline fill="none" stroke="#000000" points="128.5,-294.5 128.5,-332.5 "/>
<text text-anchor="middle" x="151.5" y="-317.3" font-family="Times,serif" font-size="14.00">prv</text>
<text text-anchor="middle" x="151.5" y="-302.3" font-family="Times,serif" font-size="14.00">&#45;1</text>
</g>
<!-- NODE11&#45;&gt;NODE12 -->
<!-- NODE13 -->
<g id="node16" class="node">
<title>NODE13</title>
<polygon fill="#ffa07a" stroke="#000000" points="83.5,-196.5 83.5,-257.5 174.5,-257.5 174.5,-196.5 83.5,-196.5"/>
<text text-anchor="middle" x="129" y="-242.3" font-family="Times,serif" font-size="14.00">[13] FREE</text>
<polyline fill="none" stroke="#000000" points="83.5,-234.5 174.5,-234.5 "/>
<text text-anchor="middle" x="106" y="-219.3" font-family="Times,serif" font-size="14.00">nxt</text>
<text text-anchor="middle" x="106" y="-204.3" font-family="Times,serif" font-size="14.00">14</text>
<polyline fill="none" stroke="#000000" points="128.5,-196.5 128.5,-234.5 "/>
<text text-anchor="middle" x="151.5" y="-219.3" font-family="Times,serif" font-size="14.00">prv</text>
<text text-anchor="middle" x="151.5" y="-204.3" font-family="Times,serif" font-size="14.00">&#45;1</text>
</g>
<!-- NODE12&#45;&gt;NODE13 -->
<!-- NODE14 -->
<g id="node17" class="node">
<title>NODE14</title>
<polygon fill="#ffa07a" stroke="#000000" points="83.5,-98.5 83.5,-159.5 174.5,-159.5 174.5,-98.5 83.5,-98.5"/>
<text text-anchor="middle" x="129" y="-144.3" font-family="Times,serif" font-size="14.00">[14] FREE</text>
<polyline fill="none" stroke="#000000" points="83.5,-136.5 174.5,-136.5 "/>
<text text-anchor="middle" x="106" y="-121.3" font-family="Times,serif" font-size="14.00">nxt</text>
<text text-anchor="middle" x="106" y="-106.3" font-family="Times,serif" font-size="14.00">15</text>
<polyline fill="none" stroke="#000000" points="128.5,-98.5 128.5,-136.5 "/>
<text text-anchor="middle" x="151.5" y="-121.3" font-family="Times,serif" font-size="14.00">prv</text>
<text text-anchor="middle" x="151.5" y="-106.3" font-family="Times,serif" font-size="14.00">&#45;1</text>
</g>
<!-- NODE13&#45;&gt;NODE14 -->
<!-- NODE15 -->
<g id="node18" class="node">
<title>NODE15</title>
<polygon fill="#ffa07a" stroke="#000000" points="79,-0.5 79,-61.5 179,-61.5 179,-0.5 79,-0.5"/>
<text text-anchor="middle" x="129" y="-46.3" font-family="Times,serif" font-size="14.00">[15] FREE</text>
<polyline fill="none" stroke="#000000" points="79,-38.5 179,-38.5 "/>
<text text-anchor="middle" x="108.5" y="-23.3" font-family="Times,serif" font-size="14.00">nxt</text>
<text text-anchor="middle" x="108.5" y="-8.3" font-family="Times,serif" font-size="14.00">NULL</text>
<polyline fill="none" stroke="#000000" points="138,-0.5 138,-38.5 "/>
<text text-anchor="middle" x="158.5" y="-23.3" font-family="Times,serif" font-size="14.00">prv</text>
<text text-anchor="middle" x="158.5" y="-8.3" font-family="Times,serif" font-size="14.00">&#45;1</text>
</g>
<!-- NODE14&#45;&gt;NODE15 -->
</g>
</svg>
